{"glyphs":{"\u0000":{"ha":694,"x_min":0,"x_max":0,"o":""},"\n":{"ha":0,"x_min":0,"x_max":0,"o":""},"\r":{"ha":0,"x_min":0,"x_max":0,"o":""}," ":{"ha":517,"x_min":0,"x_max":0,"o":""},"!":{"ha":1046,"x_min":69,"x_max":976,"o":"m 933 1617 q 940 1618 933 1617 q 960 1611 947 1619 q 975 1588 972 1603 q 969 1560 978 1572 q 243 261 546 944 q 213 239 235 242 q 179 254 192 236 q 176 292 167 272 q 910 1601 482 981 q 933 1617 918 1614 m 185 150 q 212 151 197 157 q 233 132 226 146 q 233 103 239 118 q 214 83 228 89 q 135 14 167 58 q 111 1 126 3 q 84 8 96 -1 q 70 31 72 17 q 76 58 68 46 q 185 150 119 117 z "},"#":{"ha":1063,"x_min":69,"x_max":993,"o":"m 953 574 q 980 565 968 575 q 992 540 992 556 q 983 514 993 525 q 958 501 974 503 q 693 474 840 492 q 675 458 679 471 q 653 389 660 413 q 657 367 649 376 q 678 360 665 358 q 910 393 797 379 q 937 386 925 396 q 950 362 949 376 q 942 335 951 347 q 918 321 933 324 q 635 279 792 306 q 617 263 619 276 q 558 29 581 135 q 546 8 556 17 q 522 0 536 0 q 515 1 519 0 q 492 17 500 4 q 488 44 485 29 q 532 229 506 128 q 526 249 535 240 q 506 256 518 258 q 436 243 461 247 q 419 225 422 240 l 386 71 q 371 49 383 57 q 343 44 358 40 q 320 60 328 47 q 315 86 313 72 l 338 190 q 331 210 340 201 q 310 217 322 219 q 115 171 206 193 q 106 169 111 169 q 81 178 92 169 q 69 201 71 188 q 76 226 68 215 q 97 242 83 238 q 347 299 207 269 q 364 315 361 301 l 381 392 q 375 412 383 403 q 354 418 367 421 q 219 390 286 406 q 192 394 206 386 q 176 417 179 403 q 181 444 172 432 q 204 461 189 457 q 389 499 290 481 q 407 517 404 501 l 456 740 q 471 763 458 754 q 498 768 483 771 q 521 752 513 765 q 526 725 529 739 l 488 547 q 494 526 486 535 q 514 519 501 518 q 611 535 563 528 q 628 550 624 538 q 690 715 660 638 q 710 735 696 729 q 738 735 724 740 q 758 715 751 729 q 758 688 764 701 q 718 582 739 640 q 722 560 714 569 q 742 553 729 550 q 953 574 858 567 m 549 338 q 565 353 561 340 q 588 426 576 389 q 583 447 592 438 q 564 456 575 457 q 479 440 535 450 q 461 424 465 438 l 446 350 q 451 330 443 339 q 472 324 460 321 q 549 338 510 331 z "},"$":{"ha":596,"x_min":75,"x_max":526,"o":"m 472 821 q 525 674 531 758 q 513 649 525 658 q 486 640 501 639 q 461 652 471 640 q 453 679 451 664 q 428 758 458 725 q 425 761 428 760 q 418 764 422 763 q 410 763 414 765 q 404 754 407 760 q 353 592 390 707 q 369 547 353 567 q 460 444 428 504 q 468 325 492 383 q 394 247 449 272 q 278 222 340 222 l 276 222 q 251 222 264 222 q 228 207 235 224 q 195 112 217 175 q 163 15 174 49 q 144 -5 158 1 q 117 -6 131 -11 q 96 12 103 -1 q 94 40 89 25 q 156 219 125 129 q 132 263 163 242 q 78 331 93 288 q 75 417 63 374 q 103 442 82 438 q 138 430 124 446 q 144 394 151 414 q 175 321 135 364 q 192 331 185 310 q 247 499 219 414 q 254 527 256 513 q 229 563 253 542 q 165 661 183 601 q 196 808 143 742 q 336 882 247 879 l 338 882 q 375 904 367 879 q 432 1096 404 1000 q 449 1117 436 1110 q 477 1121 463 1125 q 499 1103 492 1117 q 501 1075 507 1090 q 472 976 492 1042 q 443 878 453 911 q 447 843 435 853 q 472 821 460 832 m 350 469 q 330 482 339 482 q 317 475 321 482 q 311 458 313 468 q 291 402 308 453 q 267 324 274 351 q 278 294 260 294 l 279 294 q 355 308 319 294 q 400 350 390 322 q 350 469 421 403 m 265 631 q 274 623 269 625 q 281 621 278 621 q 285 624 283 621 q 289 628 288 626 q 292 635 290 631 q 293 640 293 639 q 340 790 317 715 q 342 800 342 797 q 338 808 342 803 q 318 807 333 814 q 254 764 279 797 q 235 681 224 728 q 265 631 244 653 z "},"*":{"ha":503,"x_min":71,"x_max":433,"o":"m 421 690 q 433 665 432 681 q 423 639 433 650 q 398 627 413 628 q 372 638 383 626 q 332 672 364 644 q 344 597 340 631 q 338 570 347 582 q 314 556 328 558 q 308 556 311 556 q 284 565 294 556 q 272 588 274 574 q 251 693 265 640 l 156 588 q 131 576 146 576 q 104 585 115 575 q 92 611 93 596 q 101 638 92 626 l 185 729 q 194 757 196 740 q 178 782 192 774 q 90 831 133 808 q 72 851 76 836 q 73 878 67 865 q 94 897 79 892 q 122 896 108 903 q 194 857 154 881 q 189 869 193 860 q 182 885 185 879 l 181 886 q 147 913 153 886 q 164 954 140 940 q 204 958 183 965 q 247 917 233 946 q 282 836 265 879 l 350 911 q 375 923 360 922 q 401 913 390 924 q 413 888 413 903 q 404 861 414 874 l 357 810 q 344 774 343 794 q 361 742 346 754 q 421 690 393 717 z "},"@":{"ha":851,"x_min":75,"x_max":778,"o":"m 461 79 q 379 72 421 72 q 231 103 301 71 q 131 174 172 126 q 75 282 90 222 q 83 425 60 356 q 169 574 108 511 q 315 664 231 638 q 490 660 403 690 q 629 556 576 629 q 665 383 679 475 q 576 231 650 290 q 496 208 540 203 q 453 235 468 213 q 439 292 436 261 l 439 297 q 436 303 439 297 q 431 300 433 304 q 383 251 410 274 q 334 226 364 229 q 281 242 304 224 q 270 287 265 254 q 285 347 275 319 q 307 394 296 374 q 464 481 368 504 q 496 431 486 460 l 497 292 q 500 268 496 279 q 506 265 501 265 q 542 278 526 264 q 608 392 597 322 q 581 522 618 463 q 469 604 538 581 q 332 608 401 628 q 210 533 261 586 q 139 410 160 479 q 132 294 121 353 q 176 211 144 247 q 253 156 208 175 q 451 138 350 117 q 657 240 571 156 q 713 337 696 282 q 719 447 729 392 q 723 469 717 460 q 741 482 729 479 q 763 478 753 485 q 776 460 774 472 q 769 322 790 390 q 699 201 749 253 q 461 79 600 101 m 421 425 q 389 407 404 419 q 356 363 372 392 q 331 312 339 335 q 329 286 324 289 q 376 326 340 278 q 431 417 413 375 q 430 423 432 419 q 421 425 428 426 z "},"A":{"ha":2894,"x_min":92,"x_max":2822,"o":"m 1794 421 q 1267 15 1528 15 q 934 89 1118 15 q 590 272 750 163 q 300 507 431 381 q 113 738 169 633 q 92 957 38 874 q 389 1039 157 1057 q 702 991 532 1028 q 1061 895 872 954 q 1407 780 1250 836 q 1764 647 1564 724 q 1822 647 1793 636 q 1865 686 1850 658 q 1983 938 1925 801 q 2288 1807 2165 1363 q 2321 1833 2294 1832 q 2357 1811 2347 1836 q 2370 1694 2367 1786 q 2375 1354 2374 1601 q 2401 457 2379 746 q 2418 413 2403 432 q 2457 386 2433 394 q 2785 310 2615 324 q 2810 299 2799 310 q 2822 274 2821 289 q 2812 249 2822 260 q 2786 238 2801 238 q 2490 299 2633 244 q 2442 288 2464 307 q 2425 242 2421 269 q 2482 92 2449 104 q 2503 73 2496 86 q 2505 46 2510 60 q 2487 25 2500 32 q 2460 22 2474 18 q 2344 303 2379 49 q 2292 367 2338 350 q 1990 482 2183 407 q 1958 490 1979 485 q 1929 496 1938 494 q 1905 499 1921 497 q 1881 499 1889 501 q 1860 492 1874 497 q 1838 478 1847 488 q 1817 455 1829 469 q 1794 421 1806 440 m 322 969 q 153 918 186 969 q 176 772 122 871 q 363 545 233 667 q 645 323 492 424 q 968 155 799 222 q 1267 88 1138 88 q 1742 474 1496 88 q 1751 542 1763 506 q 1703 593 1739 579 q 967 849 1293 750 q 383 967 640 947 q 322 969 351 969 m 2274 1501 q 1899 596 2126 1032 l 1954 574 q 2233 467 2147 499 q 2296 476 2267 454 q 2322 533 2325 497 q 2301 1354 2306 801 q 2300 1494 2301 1450 q 2295 1517 2300 1510 q 2284 1520 2290 1524 q 2274 1501 2278 1517 z "},"B":{"ha":1535,"x_min":-7,"x_max":1706,"o":"m 1553 1614 q 1667 1483 1626 1563 q 1704 1315 1707 1404 q 1665 1127 1706 1217 q 1550 975 1625 1038 q 1006 781 1372 821 q 985 770 994 779 q 975 750 976 761 q 999 713 972 722 q 1394 457 1306 600 q 1422 260 1457 365 q 890 10 1342 10 q 627 27 768 10 q 367 72 486 44 q 192 113 249 99 q 103 139 136 128 q 81 156 88 143 q 78 184 74 169 q 95 206 82 199 q 124 208 108 213 q 283 165 196 186 q 482 124 369 144 q 702 92 594 104 q 919 83 810 81 q 1116 104 1029 86 q 1267 167 1203 122 q 1351 282 1331 213 q 1333 418 1376 356 q 685 729 1218 601 q 651 724 667 733 q 631 697 636 715 q 461 213 560 450 q 440 194 454 199 q 413 195 426 189 q 394 216 399 201 q 396 244 389 231 q 557 706 490 471 q 552 742 563 725 q 522 764 542 760 q 389 788 446 779 q 365 801 374 789 q 358 828 356 814 q 372 852 360 843 q 399 860 383 861 q 563 844 464 851 q 591 853 578 844 q 610 878 604 863 q 744 1349 658 1042 q 771 1375 750 1369 q 806 1365 792 1381 q 815 1329 821 1349 q 692 899 760 1129 q 699 858 685 876 q 735 840 713 840 q 1501 1031 1282 839 q 1599 1158 1565 1083 q 1631 1317 1633 1233 q 1601 1451 1633 1388 q 1510 1554 1568 1514 q 1313 1640 1433 1610 q 1066 1671 1192 1669 q 822 1656 940 1672 q 615 1611 704 1640 q 373 1506 481 1567 q 202 1385 265 1446 q 105 1273 139 1325 q 67 1181 71 1221 q 89 1121 57 1143 q 140 1108 107 1108 q 221 1120 174 1108 q 335 1165 268 1132 q 476 1247 401 1197 q 504 1252 489 1256 q 528 1236 519 1249 q 533 1209 536 1224 q 517 1186 529 1194 q 240 1050 363 1083 q 50 1058 118 1017 q 3 1115 18 1079 q -7 1189 -12 1150 q 41 1310 0 1246 q 153 1441 82 1375 q 339 1571 225 1507 q 593 1681 453 1635 q 815 1729 689 1713 q 1076 1744 942 1746 q 1339 1708 1210 1742 q 1553 1614 1468 1675 z "},"C":{"ha":1231,"x_min":60,"x_max":1479,"o":"m 1143 268 q 1119 235 1136 257 q 1052 166 1103 214 q 946 80 1001 118 q 804 11 890 42 q 631 -19 718 -19 q 433 17 528 -19 q 99 286 196 104 q 60 719 3 468 q 202 1062 99 886 q 434 1371 306 1238 q 706 1585 563 1504 q 960 1656 849 1667 q 1174 1554 1089 1653 q 1217 1522 1190 1532 q 1272 1518 1244 1513 q 1442 1540 1356 1539 q 1468 1530 1457 1540 q 1479 1504 1479 1519 q 1468 1478 1479 1489 q 1443 1468 1457 1468 q 1246 1436 1342 1467 q 1219 1397 1218 1426 q 1142 1159 1213 1285 q 972 948 1072 1033 q 782 860 871 863 q 726 869 753 857 q 682 907 699 882 q 711 1101 640 975 q 1075 1442 846 1322 q 1106 1490 1103 1457 q 1085 1542 1110 1522 q 953 1583 1024 1581 q 733 1518 860 1592 q 486 1323 606 1444 q 267 1034 367 1201 q 131 703 168 867 q 112 571 115 635 q 124 434 108 507 q 175 299 139 361 q 283 181 211 238 q 458 86 356 124 q 610 54 535 57 q 744 67 686 51 q 858 112 801 82 q 951 171 914 142 q 1020 235 988 200 q 1065 284 1053 269 q 1083 308 1076 299 q 1106 324 1092 321 q 1133 318 1121 326 q 1149 295 1146 310 q 1143 268 1151 281 m 781 933 q 980 1056 867 935 q 1132 1314 1093 1178 q 1118 1356 1139 1340 q 1074 1358 1097 1372 q 775 1067 888 1250 q 743 989 750 1024 q 744 944 736 954 q 781 933 753 932 z "},"D":{"ha":1696,"x_min":29,"x_max":1776,"o":"m 442 15 l 438 15 q 408 31 419 15 q 404 64 397 46 q 563 535 464 221 q 559 554 565 546 q 542 561 553 563 q 219 629 369 542 q 67 797 118 690 q 29 1021 15 903 q 216 1368 50 1208 q 656 1622 382 1528 q 1139 1676 893 1704 q 1558 1518 1385 1647 q 1721 1335 1663 1447 q 1776 1097 1779 1222 q 1713 819 1771 953 q 1566 581 1656 685 q 1359 388 1476 478 q 1117 233 1242 297 q 867 120 993 168 q 634 47 742 72 q 442 15 526 21 m 643 550 q 504 125 560 283 q 508 106 500 115 q 526 100 515 97 q 714 146 614 115 q 927 225 814 176 q 1147 335 1040 274 q 1353 479 1254 397 q 1528 653 1453 561 q 1651 861 1603 746 q 1703 1100 1699 976 q 1654 1303 1704 1208 q 1514 1460 1604 1399 q 1127 1603 1354 1578 q 679 1553 900 1629 q 274 1323 426 1467 q 101 1013 121 1179 q 131 829 89 917 q 257 692 174 742 q 567 636 403 608 q 604 669 596 642 q 715 1036 653 826 q 710 1057 718 1049 q 690 1061 701 1065 q 486 1092 581 1031 q 470 1115 474 1100 q 474 1142 467 1129 q 497 1158 482 1154 q 525 1154 511 1161 q 649 1127 582 1118 q 763 1186 717 1136 q 807 1193 782 1207 q 824 1151 832 1179 q 689 699 783 1007 q 694 678 686 686 q 715 672 703 669 q 956 793 843 718 q 992 795 972 804 q 1012 765 1011 786 q 994 732 1013 743 q 682 586 850 635 q 643 550 653 579 z "},"E":{"ha":1478,"x_min":108,"x_max":1442,"o":"m 1376 450 q 1212 237 1318 344 q 981 43 1106 129 q 715 -98 857 -43 q 454 -153 574 -153 l 440 -153 q 243 -96 333 -154 q 108 60 153 -37 q 188 540 -1 286 q 506 829 304 697 q 903 1022 708 961 q 917 1042 917 1026 q 904 1063 918 1057 q 694 1235 739 1138 q 700 1393 657 1315 q 869 1524 750 1486 q 1118 1544 989 1561 q 1334 1465 1246 1526 q 1442 1318 1422 1404 q 1431 1283 1447 1297 q 1395 1275 1415 1268 q 1371 1303 1375 1282 q 1285 1411 1357 1365 q 1108 1472 1214 1457 q 902 1458 1001 1486 q 765 1358 803 1431 q 760 1265 738 1314 q 830 1188 778 1225 q 947 1125 882 1151 q 1065 1081 1011 1099 q 1161 1054 1118 1064 q 1183 1039 1175 1051 q 1189 1012 1192 1026 q 1174 989 1186 997 q 1147 983 1161 981 q 960 961 1079 994 q 713 865 842 928 q 455 703 583 801 q 246 496 326 604 q 175 92 83 278 q 283 -34 210 13 q 442 -79 356 -81 q 683 -32 550 -83 q 935 101 817 19 q 1156 285 1054 182 q 1313 485 1258 388 q 1342 725 1399 639 q 1283 767 1319 756 q 1210 768 1247 779 q 1038 699 1132 757 q 867 552 944 640 q 763 376 789 464 q 758 267 743 322 q 815 176 772 213 q 828 142 832 163 q 803 114 824 121 q 768 121 783 107 q 688 247 708 171 q 693 396 667 322 q 803 591 721 493 q 992 758 885 689 q 1200 840 1100 826 q 1313 833 1257 854 q 1404 765 1369 813 q 1376 450 1483 643 z "},"F":{"ha":1194,"x_min":82,"x_max":1304,"o":"m 1264 756 q 1290 746 1279 756 q 1303 721 1301 736 q 1294 694 1304 706 q 1268 682 1283 683 q 1003 664 1140 675 q 975 646 983 663 q 626 4 819 314 q 603 -12 618 -8 q 576 -7 589 -15 q 560 16 564 1 q 564 43 557 31 q 614 123 579 65 q 728 324 649 181 q 874 603 808 468 q 871 637 882 621 q 842 650 860 653 q 601 615 719 643 q 574 615 588 610 q 554 635 560 621 q 554 663 549 649 q 574 683 560 678 q 903 729 736 722 q 943 750 935 732 q 1017 933 985 849 q 1076 1111 1049 1018 q 1117 1280 1104 1204 q 1127 1426 1129 1356 q 1103 1547 1125 1497 q 1040 1625 1082 1594 q 947 1663 999 1656 q 690 1649 817 1686 q 465 1532 564 1613 q 292 1344 367 1451 q 178 1117 217 1236 q 142 935 147 1024 q 169 767 136 847 q 281 649 203 686 q 298 627 293 642 q 297 599 303 613 q 276 581 290 586 q 247 582 261 576 q 83 797 121 644 q 108 1140 46 949 q 201 1340 143 1243 q 342 1517 260 1436 q 519 1655 424 1599 q 729 1733 614 1711 q 961 1733 844 1756 q 1086 1683 1031 1725 q 1169 1576 1142 1640 q 1038 789 1271 1343 q 1042 756 1031 771 q 1071 743 1053 742 q 1264 756 1179 750 z "},"G":{"ha":1204,"x_min":71,"x_max":1343,"o":"m 743 -53 q 686 -64 715 -64 q 590 -31 633 -62 q 544 18 560 -12 q 531 83 528 49 q 964 493 543 240 q 988 524 982 504 l 1006 583 q 995 615 1011 603 q 963 618 979 628 q 834 547 899 579 q 683 482 769 514 q 519 436 597 450 q 358 431 442 422 q 207 476 274 439 q 96 601 131 519 q 72 794 61 683 q 144 1044 83 913 q 301 1295 206 1175 q 531 1515 396 1415 q 811 1663 665 1614 q 1069 1678 961 1711 q 1218 1538 1178 1644 q 1238 1431 1236 1489 q 1226 1310 1240 1372 q 1183 1185 1211 1249 q 1108 1060 1154 1122 q 1006 942 1063 997 q 876 837 950 886 q 721 751 803 788 q 693 751 707 746 q 673 771 679 757 q 672 799 667 785 q 692 818 678 813 q 840 899 771 853 q 960 997 908 946 q 1051 1106 1011 1049 q 1117 1218 1092 1163 q 1154 1327 1142 1274 q 1165 1428 1167 1381 q 1150 1511 1164 1475 q 1038 1611 1119 1590 q 835 1593 957 1632 q 572 1456 697 1549 q 358 1252 447 1364 q 213 1018 269 1140 q 144 788 156 896 q 243 540 126 606 q 379 501 301 507 q 530 512 457 496 q 685 560 603 528 q 826 624 767 593 q 946 694 886 656 q 1026 746 1006 732 q 1058 769 1046 760 q 1099 771 1078 785 q 1115 732 1121 757 q 1094 636 1107 692 q 1107 599 1089 614 q 1144 596 1125 585 q 1292 671 1222 638 q 1319 672 1306 678 q 1340 653 1333 667 q 1342 626 1347 640 q 1324 606 1336 611 q 1088 481 1208 550 q 1029 408 1044 456 q 743 -53 897 8 m 910 297 l 910 296 q 899 337 919 321 q 857 338 879 353 q 604 78 611 168 q 632 29 601 50 q 715 15 669 -3 q 910 297 811 54 z "},"H":{"ha":1846,"x_min":75,"x_max":1851,"o":"m 1811 649 q 1846 636 1832 653 q 1851 599 1860 619 q 1821 576 1843 579 q 1510 536 1668 556 q 1479 511 1486 533 l 1339 51 q 1323 30 1335 38 q 1297 25 1311 22 q 1275 40 1283 28 q 1268 65 1267 51 q 1246 478 1296 274 q 1231 497 1242 490 q 1208 503 1221 504 q 896 476 1042 488 q 864 451 871 475 l 749 38 q 732 15 744 22 q 705 13 719 8 q 683 29 690 17 q 679 57 675 42 l 781 424 q 774 455 786 440 q 744 468 763 469 q 75 554 125 438 q 139 688 49 615 q 495 872 293 810 q 881 903 697 935 q 906 907 894 900 q 921 928 918 914 l 1107 1596 q 1133 1622 1113 1617 q 1169 1613 1154 1628 q 1178 1576 1183 1597 l 990 906 q 993 881 988 893 q 1011 864 999 869 q 1057 842 1035 854 q 1275 608 1204 761 q 1310 588 1285 586 q 1407 599 1358 593 q 1438 624 1431 601 l 1751 1657 q 1769 1678 1756 1671 q 1797 1681 1782 1685 q 1818 1663 1811 1676 q 1821 1635 1825 1650 l 1525 663 q 1532 629 1519 644 q 1564 617 1544 614 q 1811 649 1689 632 m 142 582 q 333 538 157 547 q 789 546 510 528 q 822 571 815 547 l 882 789 q 878 817 886 804 q 854 833 869 831 q 760 840 807 840 q 185 631 438 831 q 155 603 165 615 q 143 588 144 592 l 142 582 m 942 556 q 1154 572 1043 563 q 1183 593 1174 575 q 1181 628 1192 611 q 1022 778 1121 724 q 963 806 993 794 l 906 600 q 912 568 900 582 q 942 556 924 554 m 1346 324 l 1392 474 q 1385 506 1397 492 q 1354 518 1372 521 l 1353 518 q 1327 504 1336 517 q 1322 475 1318 492 q 1346 324 1340 401 z "},"I":{"ha":853,"x_min":69,"x_max":978,"o":"m 401 39 q 247 -7 331 -6 q 86 50 157 -6 q 70 83 68 61 q 92 114 72 106 q 129 108 113 122 q 247 65 181 67 q 365 101 313 64 q 585 326 476 165 q 767 675 693 488 q 881 1059 842 863 q 906 1392 921 1256 q 790 1586 885 1558 q 502 1553 682 1618 q 224 1393 322 1489 q 175 1301 165 1335 q 260 1251 183 1271 q 283 1235 275 1247 q 287 1208 290 1222 q 270 1185 283 1193 q 242 1181 257 1176 q 104 1283 124 1210 q 174 1444 83 1357 q 484 1624 286 1554 q 811 1656 682 1694 q 978 1400 951 1614 q 953 1047 994 1254 q 833 643 913 840 q 638 277 754 446 q 401 39 522 108 z "},"J":{"ha":1338,"x_min":72,"x_max":1574,"o":"m 1221 524 q 1108 324 1171 419 q 964 138 1044 228 q 796 -17 883 49 q 606 -123 708 -83 q 400 -162 503 -162 q 268 -146 333 -162 q 113 -42 169 -125 q 72 140 57 42 q 125 310 81 222 q 263 491 169 397 q 487 665 357 585 q 811 810 617 744 q 1238 910 1006 876 q 1276 927 1260 913 q 1296 964 1292 942 q 1309 1272 1332 1136 q 1208 1469 1286 1408 q 1178 1480 1196 1479 q 1143 1476 1160 1481 q 1099 1456 1126 1471 q 1055 1432 1071 1442 q 1008 1403 1039 1422 q 967 1376 981 1385 q 928 1354 953 1368 q 888 1335 904 1340 q 852 1323 872 1329 q 815 1317 832 1317 q 781 1324 797 1318 q 701 1407 721 1346 q 702 1435 696 1421 q 722 1454 708 1449 q 750 1453 736 1460 q 769 1433 764 1447 q 803 1393 783 1399 q 851 1399 819 1388 q 905 1424 882 1411 q 968 1464 928 1438 q 1028 1501 1007 1489 q 1085 1530 1049 1513 q 1145 1551 1121 1547 q 1199 1551 1169 1556 q 1253 1526 1229 1546 q 1351 1392 1317 1478 q 1389 1206 1386 1307 q 1374 986 1392 1104 q 1385 946 1369 963 q 1425 931 1401 929 q 1535 938 1479 935 q 1561 928 1550 939 q 1574 904 1572 918 q 1564 878 1574 889 q 1539 865 1554 867 q 1389 854 1463 861 q 1353 838 1368 851 q 1331 806 1338 825 q 1221 524 1288 660 m 1156 556 q 1244 768 1207 658 q 1235 813 1253 793 q 1192 828 1218 833 q 810 731 985 793 q 519 597 636 669 q 317 440 401 524 q 192 280 233 357 q 146 133 151 203 q 173 0 132 61 q 286 -75 214 -61 q 466 -85 379 -96 q 637 -31 553 -75 q 794 74 721 13 q 935 216 868 135 q 1057 381 1003 297 q 1156 556 1111 465 z "},"K":{"ha":3042,"x_min":-72,"x_max":3618,"o":"m 3492 2008 q 3617 1790 3629 1950 q 3489 1510 3606 1649 q 3224 1338 3368 1365 q 2979 1410 3086 1310 q 2971 1445 2964 1425 q 2996 1470 2978 1465 q 3032 1463 3014 1475 q 3289 1440 3135 1365 q 3489 1622 3408 1499 q 3542 1860 3578 1760 q 3499 1921 3528 1896 q 3410 1960 3465 1950 q 3303 1969 3354 1971 q 3180 1951 3253 1967 q 3068 1924 3107 1935 q 2967 1893 3029 1913 q 2947 1888 2954 1889 q 2571 1735 2753 1828 q 1381 888 1919 1392 q 1363 835 1353 868 q 1718 313 1500 546 q 2188 28 1949 72 q 2871 285 2515 -33 q 2906 292 2886 300 q 2931 267 2926 285 q 2922 233 2936 250 q 2649 47 2790 115 q 2363 -39 2508 -22 q 2067 -8 2217 -56 q 1781 154 1918 40 q 1310 776 1482 418 q 1290 787 1304 786 q 1267 779 1275 788 q 1165 678 1229 742 q 1062 574 1101 614 q 1019 535 1022 535 q 903 337 963 426 q 774 166 844 247 q 631 28 703 85 q 476 -62 558 -29 q 308 -97 393 -96 q 129 -60 224 -97 q -61 53 35 -24 q -72 85 -78 67 q -47 110 -65 104 q -10 104 -29 117 q 195 -6 93 22 q 387 -15 297 -35 q 564 67 476 6 q 724 213 651 128 q 868 413 797 299 q 995 640 939 526 q 1104 884 1051 754 q 1194 1121 1157 1014 q 1264 1336 1231 1228 q 1260 1346 1265 1342 q 1250 1344 1254 1350 q 1097 1260 1174 1283 q 936 1260 1021 1236 q 779 1365 851 1283 q 772 1402 765 1382 q 797 1427 779 1422 q 831 1417 814 1432 q 960 1329 892 1349 q 1094 1335 1029 1310 q 1215 1409 1158 1361 q 1318 1524 1271 1457 q 1338 1540 1325 1536 q 1364 1538 1351 1543 q 1382 1522 1376 1533 q 1385 1496 1388 1510 q 1143 792 1290 1135 q 1144 772 1136 776 q 1164 779 1153 768 q 1504 1086 1313 924 q 2128 1561 1818 1356 q 2765 1901 2438 1767 q 3047 1989 2903 1956 q 3158 2015 3118 2007 q 3265 2031 3197 2022 q 3389 2035 3333 2040 q 3492 2008 3444 2029 z "},"L":{"ha":2388,"x_min":22,"x_max":2804,"o":"m 885 47 q 390 -61 647 -53 q 159 -20 249 -61 q 39 71 69 21 q 23 124 21 94 q 46 174 25 153 q 104 216 69 200 q 172 240 139 232 q 260 248 206 249 q 354 244 315 247 q 465 229 393 242 q 581 208 538 217 q 710 182 624 200 q 875 147 813 160 q 958 157 918 139 l 978 167 q 1581 660 1250 290 q 1584 690 1592 674 q 1558 706 1576 706 q 1327 724 1431 704 q 1160 773 1224 743 q 1049 846 1096 803 q 981 926 1003 889 q 946 1006 958 964 q 949 1235 914 1113 q 1074 1465 983 1358 q 1288 1631 1164 1571 q 1315 1631 1301 1636 q 1336 1613 1329 1626 q 1338 1585 1343 1600 q 1319 1564 1333 1571 q 1133 1420 1213 1513 q 1021 1222 1053 1328 q 1017 1026 989 1115 q 1217 830 1056 893 q 1636 782 1378 767 q 1724 826 1690 786 q 1872 1008 1783 899 q 2239 1432 2122 1315 q 2667 1669 2479 1671 q 2739 1661 2704 1669 q 2759 1654 2750 1660 q 2780 1638 2768 1649 q 2799 1607 2792 1628 q 2804 1558 2806 1586 q 2767 1430 2801 1506 q 2672 1268 2732 1354 q 2522 1094 2613 1182 q 2325 931 2431 1006 q 2083 800 2219 856 q 1804 725 1946 744 l 1779 722 q 1689 674 1725 715 q 1118 158 1375 310 q 1105 128 1101 147 q 1129 106 1108 108 q 1408 83 1278 85 q 1680 101 1539 81 q 1956 178 1821 121 q 2208 328 2090 235 q 2235 336 2221 338 q 2260 323 2250 335 q 2267 296 2269 311 q 2254 271 2265 281 q 2008 123 2140 181 q 1751 40 1875 65 q 1484 13 1628 15 q 1223 22 1340 10 q 968 57 1106 33 q 885 47 925 64 m 268 175 q 151 162 203 175 q 99 124 99 149 q 133 76 99 96 q 733 72 351 -49 q 743 89 751 78 q 694 110 735 101 q 268 175 485 165 m 2667 1597 q 2591 1585 2631 1597 q 2516 1557 2551 1574 q 2436 1506 2481 1540 q 2358 1445 2392 1472 q 2275 1365 2325 1418 q 2193 1278 2225 1313 q 2106 1178 2161 1244 q 2019 1074 2050 1111 q 1928 961 1989 1038 q 1844 860 1888 911 q 1842 825 1832 843 q 1874 811 1853 807 q 2119 896 2000 839 q 2330 1024 2239 953 q 2497 1174 2421 1094 q 2624 1327 2574 1253 q 2701 1463 2674 1401 q 2731 1563 2729 1524 q 2722 1590 2732 1589 q 2667 1597 2696 1597 z "},"M":{"ha":2142,"x_min":75,"x_max":2229,"o":"m 508 -4 q 324 -47 421 -44 q 136 21 217 -50 q 76 120 92 61 q 81 236 61 179 q 101 281 88 258 q 147 335 114 304 q 223 392 179 367 q 340 438 267 417 q 506 467 414 460 q 532 458 521 468 q 544 434 543 449 q 536 408 546 419 q 511 394 526 396 q 271 334 367 382 q 150 213 175 286 q 147 138 136 175 q 186 75 157 100 q 253 37 213 50 q 353 28 293 24 q 478 63 413 33 q 671 183 576 106 q 839 344 765 261 q 989 549 913 428 q 1115 760 1065 669 q 1226 987 1165 851 q 1314 1192 1286 1122 q 1388 1378 1342 1261 l 1389 1379 q 1471 1578 1450 1536 q 1513 1596 1485 1603 q 1533 1583 1525 1593 q 1540 1560 1540 1572 q 1383 374 1531 1218 q 1397 349 1381 356 q 1424 357 1414 342 q 1856 1038 1608 625 q 2161 1561 2104 1451 q 2180 1578 2167 1574 q 2206 1578 2193 1583 q 2226 1561 2219 1574 q 2228 1535 2232 1549 q 2183 1376 2215 1489 q 2118 1142 2143 1233 q 2047 873 2093 1050 q 1980 575 2001 696 q 1942 324 1958 454 q 1940 119 1925 193 q 1996 32 1954 46 q 2018 15 2011 28 q 2020 -13 2025 1 q 2002 -35 2015 -28 q 1975 -37 1989 -42 q 1906 17 1932 -25 q 1871 119 1881 58 q 1865 267 1861 179 q 1884 450 1869 356 q 1924 667 1899 544 q 1979 905 1950 789 q 2049 1163 2008 1021 q 2040 1180 2051 1175 q 2022 1174 2029 1185 q 1331 107 1546 369 q 1287 98 1313 86 q 1267 138 1261 110 q 1440 1239 1388 789 q 1430 1254 1442 1251 q 1414 1246 1418 1257 q 1336 1056 1372 1142 q 1244 855 1300 971 q 1133 644 1188 739 q 1006 444 1079 550 q 860 259 933 339 q 694 108 786 179 q 508 -4 603 38 z "},"N":{"ha":1613,"x_min":69,"x_max":2363,"o":"m 510 111 q 286 29 413 31 q 171 53 226 29 q 100 108 128 71 q 69 193 72 146 q 76 238 69 214 q 101 293 82 261 q 160 361 119 325 q 263 431 201 397 q 299 431 281 442 q 317 398 318 419 q 297 367 317 376 q 182 281 222 325 q 143 194 142 236 q 162 149 146 169 q 201 119 178 128 q 340 108 269 94 q 464 168 411 121 q 560 276 510 204 q 663 458 610 349 q 758 662 715 567 q 853 901 800 757 q 935 1124 907 1046 q 1010 1336 963 1201 q 1114 1622 1089 1565 q 1131 1641 1119 1635 q 1156 1644 1143 1647 q 1176 1631 1168 1642 q 1183 1607 1185 1621 q 1191 1282 1179 1460 q 1217 991 1203 1104 q 1261 674 1232 878 q 1306 340 1292 451 q 1326 319 1307 322 q 1351 333 1344 317 q 1647 1025 1497 697 q 1885 1458 1797 1353 q 1997 1567 1940 1526 q 2094 1622 2053 1608 q 2176 1633 2136 1635 q 2238 1625 2217 1632 q 2275 1607 2258 1618 q 2362 1503 2338 1571 q 2363 1369 2386 1436 q 2349 1345 2357 1357 q 2326 1316 2342 1333 q 2287 1287 2311 1299 q 2231 1266 2263 1275 q 2152 1259 2199 1257 q 2050 1275 2106 1261 q 2027 1291 2035 1278 q 2023 1319 2019 1304 q 2039 1341 2026 1333 q 2067 1346 2051 1349 q 2216 1338 2156 1324 q 2294 1397 2276 1351 q 2292 1481 2308 1439 q 2238 1544 2276 1522 q 2100 1545 2179 1581 q 1940 1413 2021 1510 q 1654 864 1844 1294 q 1328 72 1464 433 q 1289 49 1317 44 q 1267 60 1275 51 q 1257 82 1258 69 q 1189 664 1243 281 q 1115 1315 1128 1094 q 1108 1335 1114 1329 q 1093 1334 1101 1340 q 1079 1313 1085 1328 q 1012 1122 1036 1190 q 940 925 988 1054 q 858 715 892 796 q 776 525 825 633 q 688 346 728 417 q 600 210 647 275 q 510 111 553 144 z "},"O":{"ha":1296,"x_min":72,"x_max":1274,"o":"m 486 -31 q 389 -43 438 -43 q 206 24 285 -44 q 115 144 147 72 q 74 291 82 217 q 73 451 65 365 q 95 602 81 536 q 129 733 110 668 q 158 823 149 797 q 172 858 168 849 q 381 1165 244 1036 q 697 1355 518 1294 q 1065 1394 875 1415 q 1094 1373 1086 1393 q 1090 1336 1103 1353 q 1056 1322 1076 1319 q 719 1285 882 1340 q 430 1110 556 1229 q 239 831 304 992 q 197 713 218 781 q 160 553 176 646 q 143 375 144 460 q 169 208 142 290 q 253 79 196 126 q 355 31 297 42 q 467 40 413 21 q 685 151 586 76 q 711 198 708 169 q 693 247 714 226 q 525 508 579 360 q 500 735 488 619 q 571 950 513 850 q 692 1120 625 1054 q 826 1210 760 1186 q 953 1233 892 1235 q 1069 1206 1014 1231 q 1203 1093 1149 1169 q 1272 915 1257 1017 q 1244 697 1288 813 q 1122 493 1214 619 q 914 251 1031 367 q 897 199 893 229 q 925 153 900 169 q 1124 44 1021 90 q 1146 14 1143 35 q 1131 -19 1149 -7 q 1094 -22 1114 -32 q 842 121 961 38 q 804 133 825 133 q 767 119 783 133 q 486 -31 640 17 m 944 1160 q 783 1101 864 1160 q 635 917 703 1043 q 573 729 583 829 q 594 533 563 629 q 756 289 646 392 q 799 270 774 271 q 844 288 825 269 q 1054 524 961 399 q 1176 724 1147 649 q 1200 903 1211 819 q 1146 1049 1189 986 q 1039 1140 1103 1111 q 944 1160 994 1160 z "},"P":{"ha":1210,"x_min":82,"x_max":1786,"o":"m 1722 1371 q 1765 1311 1749 1344 q 1785 1229 1781 1278 q 1770 1113 1790 1181 q 1704 967 1750 1046 q 1539 773 1644 865 q 1308 613 1433 681 q 1058 496 1183 544 q 817 419 933 447 q 768 369 776 410 q 683 92 728 192 q 568 -25 638 -7 q 533 -17 547 -32 q 524 19 518 -1 q 550 44 529 40 q 686 342 619 64 q 679 374 690 360 q 650 389 668 389 l 613 389 q 581 390 596 389 q 481 449 499 399 q 533 575 461 501 q 559 585 544 585 q 585 574 574 585 q 596 549 596 564 q 585 522 596 533 q 549 472 549 488 q 660 464 603 458 q 680 467 671 465 q 695 470 689 468 q 706 476 701 472 q 713 483 710 481 q 717 491 715 486 q 720 498 719 496 q 722 505 721 500 q 722 510 722 510 q 738 585 724 515 q 756 674 750 644 q 773 758 761 704 q 792 841 785 813 q 810 915 799 869 q 832 984 822 960 q 855 1042 842 1008 q 881 1095 868 1076 q 910 1133 894 1114 q 942 1164 925 1153 q 979 1179 960 1175 q 1007 1175 994 1183 q 1023 1152 1019 1167 q 1019 1125 1026 1138 q 997 1108 1011 1113 q 966 1090 981 1104 q 938 1047 951 1075 q 912 990 924 1018 q 888 917 900 963 q 866 838 875 871 q 845 748 857 804 q 827 660 833 692 q 808 571 821 629 q 801 533 804 551 q 810 503 800 511 q 832 497 819 494 q 1054 573 940 526 q 1282 683 1168 619 q 1492 830 1396 746 q 1640 1003 1588 914 q 1671 1319 1769 1222 q 1469 1394 1610 1379 q 1159 1381 1329 1408 q 799 1287 989 1354 q 453 1125 608 1219 q 399 1089 425 1107 q 340 1047 372 1071 q 282 998 308 1022 q 228 943 256 974 q 185 883 201 913 q 155 819 168 853 q 142 751 142 785 q 153 681 143 718 q 150 653 157 667 q 128 635 143 640 q 101 638 114 631 q 82 660 88 644 q 128 928 42 792 q 415 1188 214 1064 q 766 1350 569 1281 q 1147 1451 963 1419 q 1489 1463 1331 1482 q 1722 1371 1647 1444 z "},"Q":{"ha":1911,"x_min":74,"x_max":1860,"o":"m 625 49 q 357 -22 499 -17 q 143 53 236 -25 q 75 182 51 131 q 90 203 81 194 q 116 217 99 211 q 151 225 133 222 q 203 226 169 228 q 267 223 238 225 q 349 215 297 221 q 447 203 401 208 q 567 188 493 197 l 646 176 q 728 196 690 169 q 948 384 842 274 q 1138 616 1054 494 q 1269 867 1221 738 q 1313 1107 1317 997 q 1078 1413 1303 1325 q 826 1438 956 1464 q 603 1321 697 1413 q 401 1005 467 1199 q 376 660 335 811 q 444 538 392 589 q 567 474 496 488 q 777 528 663 454 q 963 714 892 603 q 1012 822 1000 772 q 1007 894 1024 871 q 1000 922 997 907 q 1015 945 1003 936 q 1042 952 1028 954 q 1065 938 1057 950 q 1088 824 1099 893 q 1025 674 1076 754 q 808 460 940 543 q 553 401 675 378 q 394 484 461 419 q 306 640 326 549 q 331 1025 258 813 q 554 1375 403 1238 q 814 1510 664 1481 q 1104 1481 964 1539 q 1308 1335 1236 1429 q 1385 1110 1379 1240 q 1317 793 1392 965 q 1122 469 1243 621 q 854 197 1001 317 q 844 168 839 186 q 868 149 850 150 q 1129 124 1010 132 q 1377 118 1249 117 q 1617 139 1506 119 q 1810 196 1728 158 q 1838 197 1824 201 q 1858 178 1851 192 q 1858 150 1864 164 q 1840 129 1853 136 q 1612 64 1743 85 q 1328 45 1481 43 q 1043 58 1175 47 q 747 89 911 68 q 674 74 707 94 q 625 49 649 61 m 149 150 q 190 108 167 126 q 585 111 331 -11 l 557 115 q 149 150 203 163 z "},"R":{"ha":1651,"x_min":29,"x_max":1733,"o":"m 1651 1065 q 1476 854 1585 953 q 1244 688 1367 756 q 997 575 1121 619 q 764 514 874 531 q 744 501 750 513 q 746 476 739 489 q 822 360 788 410 q 906 249 856 310 q 1004 150 957 189 q 1111 84 1051 111 q 1231 57 1171 57 q 1254 58 1242 57 q 1351 89 1306 63 q 1423 144 1397 115 q 1470 211 1449 174 q 1497 263 1492 249 q 1506 288 1503 278 q 1523 309 1510 301 q 1551 312 1536 317 q 1572 294 1565 307 q 1575 267 1579 281 q 1564 235 1571 254 q 1531 170 1557 215 q 1473 90 1506 125 q 1383 23 1440 54 q 1260 -15 1326 -8 q 1229 -15 1244 -15 q 1099 10 1164 -15 q 983 74 1035 35 q 878 171 932 113 q 788 281 825 229 q 708 400 750 333 q 700 403 706 404 q 694 397 694 403 q 610 126 656 224 q 497 11 565 29 q 461 20 476 6 q 451 56 446 35 q 478 81 457 76 q 565 205 526 94 q 640 496 603 315 q 633 506 642 506 q 538 524 585 506 q 477 576 497 538 q 471 657 457 615 q 531 728 489 722 q 588 707 560 732 q 653 625 615 682 q 662 620 658 618 q 668 628 665 622 q 690 739 682 700 q 711 840 697 778 q 735 938 725 903 q 761 1020 746 972 q 791 1095 776 1068 q 824 1151 806 1122 q 863 1194 842 1179 q 908 1215 885 1210 q 935 1211 922 1219 q 952 1188 949 1203 q 948 1161 956 1174 q 925 1144 940 1149 q 895 1126 910 1140 q 867 1083 881 1111 q 841 1027 853 1056 q 817 953 829 999 q 795 874 804 907 q 774 784 786 840 q 756 697 763 728 q 738 607 749 665 q 737 602 738 604 q 735 597 736 600 q 738 589 735 593 q 743 585 740 585 q 959 641 843 600 q 1194 745 1075 682 q 1420 902 1314 808 q 1588 1103 1526 996 q 1618 1418 1717 1321 q 1417 1492 1557 1478 q 1106 1480 1276 1507 q 746 1385 936 1453 q 400 1224 556 1318 q 346 1189 372 1207 q 288 1146 319 1171 q 229 1097 256 1121 q 176 1042 203 1072 q 132 982 149 1011 q 102 918 115 953 q 90 850 89 883 q 100 781 90 817 q 97 752 104 765 q 76 735 90 739 q 48 738 61 731 q 29 758 35 744 q 75 1026 -11 890 q 363 1286 161 1163 q 713 1450 517 1381 q 1094 1550 910 1519 q 1436 1562 1278 1581 q 1669 1469 1594 1543 q 1711 1410 1696 1444 q 1732 1328 1726 1376 q 1717 1213 1738 1281 q 1651 1065 1697 1144 m 567 590 q 582 585 574 588 q 588 586 586 585 q 588 593 590 588 q 550 643 569 619 q 542 639 544 650 q 567 590 529 606 z "},"S":{"ha":1183,"x_min":71,"x_max":1518,"o":"m 1008 194 q 942 94 989 138 q 832 27 896 51 q 699 -8 768 3 q 556 -19 631 -19 q 492 -18 522 -19 q 355 1 422 -14 q 226 42 288 17 q 124 110 165 68 q 72 203 82 151 q 161 404 54 301 q 497 611 268 507 q 534 609 517 621 q 549 576 551 597 q 528 546 547 554 q 345 450 422 497 q 230 369 268 403 q 170 302 192 335 q 145 251 149 269 q 144 217 142 232 q 256 110 156 156 q 497 56 356 64 q 683 63 593 49 q 847 116 774 76 q 939 217 919 156 q 953 292 951 254 q 942 371 954 331 q 915 446 929 411 q 870 524 901 481 q 816 599 839 568 q 749 676 793 629 q 681 750 706 724 q 606 825 656 776 q 535 898 560 874 q 469 969 511 922 q 404 1043 426 1015 q 351 1115 382 1071 q 305 1191 319 1160 q 276 1265 290 1222 q 260 1342 261 1307 q 266 1417 258 1376 q 292 1494 274 1457 q 467 1634 343 1597 q 771 1638 590 1671 q 1106 1526 938 1606 q 1391 1338 1274 1447 q 1517 1129 1508 1229 q 1340 918 1529 990 q 913 892 1129 860 q 890 906 899 894 q 883 933 881 918 q 897 956 885 947 q 922 964 908 965 q 1314 986 1121 935 q 1444 1122 1451 1039 q 1334 1291 1438 1199 q 1072 1460 1231 1383 q 757 1565 914 1536 q 653 1578 704 1575 q 541 1576 601 1582 q 431 1541 481 1569 q 357 1463 382 1513 q 337 1399 342 1432 q 333 1338 332 1367 q 349 1272 335 1308 q 377 1209 364 1236 q 419 1143 390 1182 q 469 1079 449 1104 q 528 1011 489 1054 q 590 945 568 968 q 658 876 613 922 q 729 804 706 829 q 796 733 753 779 q 861 659 839 688 q 916 586 883 631 q 965 509 949 542 q 999 434 981 476 q 1021 355 1017 392 q 1023 276 1025 318 q 1008 194 1021 235 z "},"T":{"ha":672,"x_min":-306,"x_max":1875,"o":"m 1848 1331 q 1855 1330 1848 1331 q 1870 1315 1863 1328 q 1874 1287 1878 1301 q 1858 1264 1871 1272 q 1753 1219 1808 1235 q 1650 1197 1699 1203 q 1537 1198 1601 1190 q 1427 1215 1472 1206 q 1308 1247 1382 1224 q 1192 1285 1233 1269 q 1069 1331 1150 1300 q 815 1421 903 1393 q 773 1417 793 1428 q 747 1383 753 1406 q 338 64 518 518 q 318 44 332 50 q 290 43 304 38 q 271 63 276 49 q 271 90 265 76 q 678 1403 449 540 q 671 1444 683 1425 q 636 1468 658 1464 q 21 1438 324 1544 q -117 1362 -62 1407 q -196 1274 -172 1317 q -227 1183 -219 1232 q -232 1106 -235 1135 q -222 1051 -229 1078 q -131 900 -197 958 q 1 853 -65 842 q 38 840 24 857 q 43 803 51 824 q 14 781 35 783 q -18 778 -1 778 q -185 850 -107 778 q -293 1033 -264 922 q -306 1135 -303 1083 q -290 1240 -308 1186 q -238 1342 -271 1294 q -145 1433 -206 1390 q -4 1506 -85 1476 q 171 1553 81 1538 q 335 1572 261 1568 q 501 1565 410 1576 q 655 1540 593 1553 q 810 1499 717 1528 q 952 1451 903 1469 q 1094 1399 1001 1433 q 1214 1355 1174 1369 q 1324 1317 1254 1340 q 1435 1286 1393 1294 q 1535 1270 1476 1278 q 1638 1267 1594 1263 q 1729 1287 1681 1272 q 1821 1326 1778 1301 q 1848 1331 1833 1335 z "},"U":{"ha":1846,"x_min":85,"x_max":1801,"o":"m 871 -14 q 850 -15 863 -15 q 617 81 686 -15 q 581 157 593 113 q 567 244 569 201 q 574 351 564 288 q 595 460 585 414 q 630 583 606 506 q 669 703 654 660 q 714 829 685 746 q 750 931 738 896 q 782 1026 763 967 q 809 1119 801 1085 q 824 1196 817 1154 q 830 1265 832 1238 q 818 1310 828 1292 q 782 1333 806 1331 q 551 1311 675 1353 q 323 1181 426 1269 q 172 986 219 1093 q 146 894 153 940 q 147 792 139 849 q 196 678 156 736 q 306 565 236 619 q 320 542 318 557 q 313 515 322 526 q 290 501 304 503 q 263 507 275 499 q 85 743 126 610 q 107 1017 44 876 q 276 1237 160 1139 q 532 1381 392 1335 q 796 1404 672 1428 q 882 1346 853 1396 q 901 1271 899 1317 q 897 1182 903 1225 q 870 1066 892 1139 q 832 945 849 993 q 782 806 815 897 q 735 671 751 718 q 694 543 719 624 q 659 412 668 463 q 642 301 650 361 q 644 197 635 240 q 675 124 653 154 q 868 58 726 54 q 1029 88 953 61 q 1165 153 1106 115 q 1281 256 1225 192 q 1376 377 1336 321 q 1456 522 1415 433 q 1519 670 1496 610 q 1572 827 1543 731 q 1615 974 1601 924 q 1650 1113 1628 1024 q 1717 1347 1694 1289 q 1723 1365 1721 1360 q 1729 1379 1725 1371 q 1736 1392 1733 1388 q 1744 1400 1739 1396 q 1753 1406 1749 1404 q 1763 1407 1757 1407 q 1776 1404 1769 1407 q 1801 1376 1800 1396 q 1786 1310 1801 1356 q 1683 932 1725 1106 q 1621 638 1642 758 q 1593 422 1600 518 q 1590 267 1586 325 q 1605 166 1593 208 q 1629 106 1617 124 q 1656 76 1642 88 q 1671 53 1668 68 q 1665 26 1674 39 q 1642 11 1657 14 q 1614 17 1626 8 q 1517 403 1497 97 q 1504 422 1518 418 q 1483 414 1490 426 q 871 -14 1254 0 z "},"V":{"ha":1575,"x_min":85,"x_max":1742,"o":"m 1507 496 q 1147 113 1347 249 q 740 -22 946 -22 q 644 -14 693 -22 q 556 46 586 -6 q 533 112 539 74 q 537 204 528 150 q 556 303 546 258 q 592 426 565 349 q 635 551 618 504 q 686 692 651 599 q 733 817 717 774 q 774 935 749 861 q 811 1056 800 1010 q 833 1155 822 1101 q 841 1244 843 1208 q 826 1303 839 1281 q 782 1333 811 1329 q 551 1311 675 1353 q 323 1181 426 1269 q 172 986 219 1093 q 146 894 153 940 q 147 792 139 847 q 196 678 156 736 q 306 565 236 619 q 320 542 318 557 q 313 515 322 526 q 290 501 304 503 q 263 507 275 499 q 85 743 126 610 q 107 1015 44 876 q 276 1237 160 1139 q 532 1381 392 1335 q 796 1404 672 1428 q 889 1339 858 1394 q 912 1269 907 1310 q 908 1170 917 1228 q 888 1065 899 1113 q 851 937 878 1017 q 808 809 825 857 q 756 667 790 761 q 710 546 725 588 q 671 433 696 504 q 635 317 646 361 q 613 222 624 274 q 605 137 603 171 q 618 82 607 103 q 657 58 632 60 q 1070 151 861 25 q 1446 536 1279 278 q 1650 1020 1601 776 q 1617 1388 1699 1264 q 1615 1424 1606 1404 q 1645 1444 1624 1443 q 1678 1428 1667 1446 q 1740 1156 1749 1318 q 1669 823 1732 994 q 1507 496 1607 651 z "},"W":{"ha":2094,"x_min":85,"x_max":2118,"o":"m 953 51 q 814 18 888 18 q 671 51 739 18 q 594 104 625 72 q 551 182 563 136 q 535 269 540 228 q 543 376 529 311 q 568 485 557 440 q 608 607 579 531 q 653 725 636 683 q 704 847 671 767 q 744 943 731 910 q 780 1032 758 976 q 811 1121 801 1088 q 830 1194 821 1154 q 838 1260 839 1233 q 828 1304 836 1286 q 782 1333 813 1331 q 551 1311 676 1353 q 323 1181 426 1269 q 172 986 219 1093 q 146 894 153 940 q 147 792 139 849 q 196 678 156 736 q 306 565 236 619 q 320 542 318 557 q 313 515 322 526 q 290 501 304 503 q 263 507 275 499 q 85 743 126 610 q 107 1017 44 876 q 276 1237 160 1139 q 532 1381 392 1335 q 796 1404 672 1428 q 892 1339 860 1396 q 909 1265 908 1310 q 902 1178 910 1219 q 869 1067 894 1138 q 826 951 844 996 q 772 819 808 907 q 735 731 747 761 q 700 645 722 701 q 667 556 678 589 q 641 474 657 524 q 620 392 625 424 q 610 320 615 361 q 610 252 604 279 q 625 197 615 225 q 654 150 635 169 q 701 117 674 131 q 811 90 753 90 q 921 117 869 90 q 1187 428 1061 186 q 1393 1032 1313 671 q 1408 1054 1396 1046 q 1435 1060 1421 1063 q 1458 1047 1449 1058 q 1465 1021 1467 1035 q 1425 742 1454 926 q 1401 588 1408 640 q 1386 453 1394 536 q 1380 323 1378 371 q 1394 225 1382 275 q 1429 146 1406 175 q 1563 92 1483 88 q 1710 142 1639 92 q 1835 280 1781 193 q 1929 465 1889 367 q 1996 671 1969 564 q 2039 1125 2058 921 q 1929 1375 2019 1329 q 1908 1405 1910 1383 q 1925 1438 1907 1426 q 1961 1440 1943 1450 q 2087 1265 2049 1396 q 2117 976 2125 1133 q 2067 653 2108 818 q 2010 467 2043 556 q 1929 294 1976 378 q 1828 149 1882 210 q 1704 52 1774 88 q 1561 19 1635 17 q 1374 99 1449 15 q 1311 433 1293 196 q 1297 453 1313 449 q 1275 443 1282 457 q 953 51 1132 139 z "},"X":{"ha":1756,"x_min":71,"x_max":1726,"o":"m 1694 106 q 1717 93 1708 104 q 1726 67 1726 82 q 1715 43 1725 53 q 1689 33 1704 33 q 1683 35 1686 33 q 1540 90 1610 46 q 1405 208 1469 133 q 1286 363 1340 282 q 1171 553 1232 444 q 1144 569 1161 568 q 1117 556 1126 569 q 425 1 731 1 q 279 34 344 1 q 171 120 214 67 q 103 238 128 174 q 71 371 78 301 q 84 528 64 454 q 159 661 104 603 q 299 735 214 719 q 325 728 313 738 q 340 705 338 719 q 334 678 343 690 q 311 663 325 665 q 208 606 249 651 q 152 502 167 561 q 144 376 138 443 q 182 233 150 300 q 278 121 214 167 q 425 75 342 75 q 1094 654 706 75 q 1097 688 1106 671 q 1035 806 1076 726 q 952 960 981 907 q 872 1104 924 1014 q 786 1242 821 1194 q 701 1352 751 1290 q 608 1443 650 1414 q 517 1490 567 1472 q 417 1503 467 1508 q 296 1397 306 1488 q 360 1197 288 1310 q 518 1056 433 1085 q 580 1052 549 1042 q 626 1093 611 1063 q 649 1108 635 1106 q 676 1103 664 1111 q 692 1081 689 1096 q 688 1053 696 1065 q 603 984 658 1003 q 494 986 549 965 q 356 1082 422 1011 q 253 1242 290 1153 q 224 1404 217 1331 q 235 1452 226 1429 q 262 1502 243 1475 q 318 1549 281 1529 q 407 1575 356 1568 q 526 1564 468 1582 q 633 1517 585 1546 q 736 1424 681 1489 q 829 1310 792 1360 q 923 1163 867 1260 q 1010 1008 979 1065 q 1100 839 1040 951 q 1114 811 1110 821 q 1138 774 1128 785 q 1158 767 1149 763 q 1174 779 1168 771 q 1194 808 1181 788 q 1461 1282 1304 988 q 1559 1457 1538 1424 q 1601 1494 1581 1490 q 1626 1492 1614 1497 q 1642 1474 1638 1486 q 1643 1448 1647 1461 q 1628 1428 1639 1435 q 1526 1247 1613 1410 q 1201 682 1333 889 q 1200 650 1190 667 q 1315 451 1263 535 q 1431 288 1368 368 q 1560 163 1494 208 q 1694 106 1626 117 z "},"Y":{"ha":1564,"x_min":85,"x_max":1665,"o":"m 1063 -97 q 979 -122 1024 -121 q 939 -115 958 -122 q 869 -74 896 -107 q 843 1 842 -40 q 893 140 843 60 q 1025 307 943 221 q 1195 472 1107 393 q 1376 624 1283 550 q 1394 649 1389 633 l 1464 847 q 1454 872 1469 864 q 1428 867 1439 881 q 1047 539 1236 589 q 894 535 971 518 q 756 606 817 553 q 678 695 707 642 q 644 810 649 749 q 658 956 638 878 q 717 1104 679 1033 q 789 1228 754 1175 q 860 1325 824 1281 q 879 1366 882 1350 q 842 1376 876 1382 q 314 1146 551 1321 q 251 1092 279 1118 q 197 1030 224 1065 q 157 960 171 994 q 143 887 143 926 q 161 810 143 847 q 163 782 168 796 q 144 761 158 768 q 117 760 131 754 q 96 778 103 765 q 85 978 49 875 q 240 1181 122 1081 q 386 1283 303 1233 q 551 1367 469 1332 q 714 1424 633 1401 q 851 1447 794 1447 q 942 1428 908 1447 q 969 1388 963 1414 q 964 1340 975 1363 q 957 1329 963 1333 q 928 1294 947 1317 q 867 1211 910 1272 q 791 1090 824 1150 q 735 954 758 1031 q 717 815 711 878 q 801 663 724 719 q 908 608 847 622 q 1028 610 968 593 q 1157 676 1092 626 q 1275 786 1222 725 q 1381 926 1328 847 q 1468 1069 1433 1006 q 1535 1200 1503 1132 q 1578 1292 1568 1268 q 1594 1331 1589 1315 q 1613 1349 1600 1343 q 1640 1351 1626 1356 q 1661 1335 1654 1347 q 1664 1308 1668 1322 q 1506 749 1601 1044 q 1510 733 1501 739 q 1525 733 1518 728 q 1619 786 1569 765 q 1646 783 1633 790 q 1663 761 1658 775 q 1660 734 1667 747 q 1639 717 1653 721 q 1467 604 1546 671 q 1446 578 1453 593 q 1063 -97 1240 6 m 1026 -35 q 1321 451 1158 40 q 1315 468 1325 461 q 1297 467 1306 475 q 1026 201 1136 329 q 915 1 917 74 q 960 -46 915 -33 q 1026 -35 996 -56 z "},"Z":{"ha":1364,"x_min":69,"x_max":1426,"o":"m 199 75 q 138 26 156 39 q 107 14 119 14 q 82 25 92 14 q 69 44 72 35 q 73 68 67 54 q 85 92 79 82 q 106 122 90 101 q 176 202 125 150 q 320 342 226 254 q 482 493 414 431 q 685 676 550 556 q 1272 1228 1142 1093 q 1278 1265 1289 1244 q 1244 1282 1268 1285 q 722 1174 928 1242 q 482 1028 517 1106 q 476 979 472 1004 q 499 936 481 954 q 505 909 507 924 q 490 885 503 894 q 463 879 478 876 q 439 894 447 882 q 403 974 410 929 q 415 1058 397 1018 q 495 1148 438 1106 q 635 1221 553 1190 q 809 1276 718 1251 q 1006 1319 900 1301 q 1199 1349 1113 1338 q 1376 1371 1286 1361 q 1406 1366 1392 1374 q 1426 1344 1419 1358 q 1421 1294 1436 1324 q 1332 1185 1406 1264 q 1121 978 1258 1107 q 733 622 983 850 q 496 407 561 467 q 497 371 456 369 q 553 382 517 371 q 603 389 576 389 q 652 386 629 389 q 705 372 675 383 q 756 353 735 361 q 810 326 776 344 q 860 298 843 308 q 913 267 878 288 q 932 256 925 260 q 993 220 972 232 q 1049 190 1014 208 q 1106 163 1083 171 q 1156 147 1128 154 q 1206 142 1183 140 q 1250 153 1229 143 q 1278 153 1264 158 q 1298 134 1292 147 q 1299 106 1304 121 q 1279 86 1293 92 q 1206 70 1246 71 q 1133 77 1165 69 q 1051 107 1100 85 q 975 145 1003 129 q 894 193 947 161 q 806 244 838 226 q 727 283 775 261 q 640 312 679 306 q 568 310 601 318 q 474 275 525 301 q 367 208 422 249 q 278 141 311 167 q 199 75 246 115 z "},"a":{"ha":1122,"x_min":-50,"x_max":1171,"o":"m 1136 349 q 1144 349 1136 349 q 1161 338 1151 349 q 1170 311 1171 326 q 1158 286 1169 296 q 1126 258 1146 275 q 1053 201 1106 240 q 946 131 1000 163 q 818 67 892 99 q 676 24 744 36 q 533 22 608 11 q 396 72 458 32 q 303 169 338 110 q 273 188 293 186 q 242 172 253 189 q 135 46 193 97 q 29 -7 78 -6 l 28 -7 q -19 9 3 -6 q -50 47 -40 24 q -37 250 -92 151 q 91 413 8 346 q 278 506 174 481 q 313 496 299 511 q 322 460 328 481 q 294 435 315 440 q 138 358 207 414 q 29 219 68 301 q 15 81 -10 153 q 28 67 24 67 q 119 153 51 51 q 242 372 188 254 q 281 393 253 397 q 311 363 307 389 q 315 344 313 356 q 326 301 317 332 q 349 242 336 269 q 385 183 361 214 q 436 133 408 151 q 555 92 489 99 q 681 99 621 85 q 808 142 742 113 q 924 203 875 172 q 1019 268 972 233 q 1084 317 1067 303 q 1110 340 1101 332 q 1136 349 1121 350 z "},"b":{"ha":1004,"x_min":-39,"x_max":1065,"o":"m 1029 360 q 1037 360 1029 360 q 1055 349 1044 360 q 1065 322 1065 338 q 1053 297 1064 307 q 892 191 981 228 q 712 151 803 154 q 534 166 621 149 q 363 219 447 183 q 321 218 342 228 q 293 186 300 208 q 256 97 281 139 q 185 21 231 50 q 85 -10 139 -8 q 47 -7 65 -10 l 33 -1 q -39 342 -85 63 q 57 690 -14 496 q 219 1033 128 883 q 381 1193 310 1182 q 437 1189 410 1201 q 476 1150 464 1176 q 456 961 503 1094 q 326 688 408 828 q 160 428 244 549 q 28 265 75 308 q 25 263 26 264 q 26 140 18 201 q 76 78 33 94 q 154 89 118 61 q 194 136 178 108 q 231 238 222 183 q 199 307 236 283 q 160 335 178 321 q 146 369 143 347 q 169 397 149 390 q 227 403 197 410 q 276 372 257 396 q 297 332 290 354 q 465 259 378 286 q 647 224 551 232 q 835 248 742 217 q 1003 350 929 279 q 1029 360 1014 360 m 392 1121 q 292 1016 356 1115 q 162 758 229 917 q 57 446 94 599 q 63 432 54 436 q 78 436 72 428 q 264 726 179 576 q 367 933 331 843 q 411 1063 404 1022 q 411 1118 418 1103 q 401 1122 410 1122 q 392 1121 396 1122 z "},"c":{"ha":1113,"x_min":-60,"x_max":1182,"o":"m 1146 359 q 1153 359 1146 359 q 1172 347 1161 358 q 1181 321 1182 336 q 1168 296 1181 306 q 790 78 999 154 q 360 0 582 1 q 144 19 251 0 q 39 52 82 31 q -24 100 -4 74 q -52 149 -44 126 q -60 196 -60 172 q -8 340 -60 265 q 116 464 44 414 q 249 526 188 514 q 401 497 333 550 q 458 364 458 443 q 447 338 457 349 q 421 328 436 328 q 395 339 406 328 q 385 365 385 350 q 354 442 386 410 q 263 454 311 469 q 99 353 186 440 q 13 196 13 267 q 157 90 14 117 q 337 74 246 75 q 503 83 428 72 q 654 113 579 93 q 788 156 729 132 q 901 208 846 179 q 992 258 956 236 q 1061 304 1029 281 q 1104 337 1093 328 q 1119 350 1115 346 q 1146 359 1131 360 z "},"d":{"ha":1264,"x_min":-35,"x_max":1326,"o":"m 1289 329 q 1297 329 1289 329 q 1315 318 1304 329 q 1325 292 1325 307 q 1314 267 1325 278 q 1171 153 1250 204 q 1015 70 1092 101 q 858 19 938 39 q 714 -1 778 -1 q 599 13 650 0 q 469 95 524 39 q 390 226 414 151 q 373 240 386 239 q 353 231 360 242 q 76 -6 186 -6 q 63 -4 69 -6 q 3 20 29 0 q -33 72 -22 40 q -34 222 -54 142 q 22 347 -14 303 q 217 433 121 461 q 280 394 253 422 q 318 328 307 365 q 310 301 319 314 q 288 288 301 289 q 260 294 272 285 q 246 317 249 303 q 192 364 231 353 q 78 300 143 375 q 35 97 15 207 q 72 68 43 69 q 166 121 103 64 q 314 303 229 178 q 342 346 328 324 q 354 400 357 371 q 357 581 349 490 q 413 864 369 725 q 526 1099 457 1003 q 669 1206 594 1196 q 733 1176 711 1213 q 725 991 763 1129 q 613 694 688 853 q 451 386 539 535 q 440 321 433 356 q 621 82 481 126 q 716 72 663 72 q 841 89 769 71 q 983 135 913 107 q 1128 211 1053 163 q 1264 319 1203 260 q 1289 329 1274 329 m 429 574 q 435 536 426 536 q 449 551 440 536 q 675 1094 656 918 q 664 1117 676 1110 q 640 1115 651 1124 q 508 911 571 1065 q 429 574 446 757 z "},"e":{"ha":1113,"x_min":-37,"x_max":1174,"o":"m 1141 371 q 1148 370 1141 371 q 1165 358 1156 369 q 1174 331 1175 346 q 1160 306 1172 315 q 1108 267 1139 289 q 990 192 1078 244 q 816 101 903 140 q 607 31 729 63 q 374 -1 485 -1 q 101 50 232 -3 q 31 90 60 67 q -11 134 3 113 q -31 180 -25 156 q -37 222 -37 204 q -32 258 -36 240 q 40 388 -17 324 q 167 488 97 451 q 293 521 238 524 q 358 494 331 521 q 388 429 385 468 q 313 308 394 363 q 54 243 194 235 q 42 240 47 244 q 38 229 36 236 q 129 118 28 158 q 324 74 219 81 q 518 85 428 68 q 703 136 608 101 q 865 206 797 171 q 995 281 932 242 q 1081 338 1058 321 q 1114 363 1104 354 q 1141 371 1126 372 m 86 328 q 101 306 68 303 q 250 356 160 310 q 274 369 264 364 q 314 422 317 399 q 307 442 313 438 q 289 449 301 447 q 185 417 244 451 q 86 328 126 382 z "},"f":{"ha":861,"x_min":-129,"x_max":929,"o":"m 893 374 q 901 374 893 374 q 919 363 908 374 q 929 336 929 351 q 918 311 929 321 q 417 192 769 168 q 85 254 247 204 q 58 252 68 260 q 50 226 49 244 q 58 142 53 192 q 72 -22 67 47 q 82 -174 78 -92 q 85 -317 86 -257 q 78 -437 85 -376 q 60 -537 72 -497 q 26 -607 47 -578 q -24 -647 6 -636 q -46 -651 -35 -651 q -89 -635 -71 -651 q -128 -507 -121 -604 q -122 -278 -136 -410 q -83 -9 -108 -147 q -26 258 -58 129 q -26 264 -26 261 q -26 337 -31 318 q -4 364 -21 356 q 4 382 -3 374 l 7 385 q 238 846 121 781 q 311 856 272 867 q 360 808 349 846 q 344 716 368 774 q 271 591 319 658 q 180 472 222 524 q 90 368 138 419 q 77 343 75 353 q 101 325 79 333 q 266 286 169 303 q 477 263 363 269 q 699 281 592 256 q 867 363 807 306 q 893 374 878 374 m 272 782 q 160 617 242 757 q 119 521 99 513 q 139 539 125 524 q 215 635 176 576 q 276 740 254 694 q 289 789 297 785 q 281 789 285 790 q 275 785 278 788 l 272 782 m -43 -576 q -4 -434 -19 -579 q 10 -141 11 -289 q -6 7 8 7 q -31 -83 -17 7 q -55 -282 -46 -174 q -62 -482 -64 -390 q -43 -576 -60 -574 z "},"g":{"ha":915,"x_min":-108,"x_max":979,"o":"m 967 365 q 978 340 978 356 q 968 315 979 325 q 737 201 874 215 q 486 263 600 186 q 439 258 461 279 q 286 89 357 178 q 278 71 279 81 q 165 -369 240 -153 q 22 -629 89 -585 q -19 -643 3 -643 q -68 -622 -49 -643 q -108 -507 -114 -574 q -17 -230 -106 -396 q 204 103 72 -64 q 213 124 211 113 q 225 235 222 185 q 50 44 136 63 q -50 82 -11 33 q -72 134 -68 101 q -70 199 -76 167 q -50 265 -64 232 q 78 438 -11 369 q 278 515 167 506 q 305 507 293 517 q 317 482 317 497 q 308 455 318 467 q 283 443 299 443 q 122 378 193 433 q 18 240 50 324 q 4 131 -10 188 q 36 117 21 113 q 129 211 76 124 q 217 394 182 299 q 250 418 225 418 q 285 396 275 418 q 299 307 299 353 q 301 282 299 293 q 310 261 304 271 q 330 257 317 251 q 363 283 343 263 q 411 332 371 293 q 458 351 431 350 q 507 336 485 353 q 716 270 599 263 q 915 364 833 278 q 940 376 925 375 q 967 365 956 376 m 42 -482 q 144 -224 88 -390 q 182 -51 200 -58 q 116 -137 168 -46 q 15 -344 64 -229 q -35 -508 -33 -460 q -18 -569 -36 -564 q 2 -558 -7 -572 q 33 -499 11 -544 q 42 -482 39 -489 z "},"h":{"ha":1050,"x_min":-74,"x_max":1106,"o":"m 1071 345 q 1078 345 1071 345 q 1096 333 1086 344 q 1105 307 1106 322 q 1093 282 1104 292 q 1053 248 1076 267 q 963 184 1029 229 q 833 108 896 139 q 687 56 769 76 q 536 44 604 35 q 419 92 472 56 q 336 185 367 129 q 265 232 313 228 q 225 225 247 233 q 169 195 203 217 q 89 124 135 174 q -7 1 43 75 q -49 -11 -22 -21 q -72 26 -75 -1 q -31 296 -64 132 q -29 338 -44 317 l -19 351 q 65 697 17 529 q 138 926 101 829 q 198 1072 174 1024 q 248 1150 222 1119 q 284 1186 274 1181 q 307 1196 294 1192 q 353 1195 331 1203 q 390 1168 375 1188 q 420 1078 418 1135 q 405 960 422 1022 q 353 821 388 897 q 281 678 318 744 q 197 539 243 611 q 119 421 151 467 q 57 332 88 375 q 54 328 57 332 l 46 315 q 24 197 26 213 q 31 183 22 188 q 47 186 40 179 q 271 304 168 313 q 345 279 311 301 q 399 221 379 257 q 461 151 422 179 q 547 117 500 124 q 680 128 606 108 q 811 178 754 149 q 929 250 868 208 q 1010 308 990 292 q 1044 336 1031 325 q 1071 345 1056 346 m 328 1126 q 235 977 301 1126 q 122 674 169 828 q 90 510 74 519 q 118 533 97 506 q 165 609 139 561 q 222 718 192 657 q 277 842 251 779 q 321 964 303 906 q 343 1063 339 1022 q 333 1122 347 1104 q 328 1126 329 1126 z "},"i":{"ha":853,"x_min":-24,"x_max":913,"o":"m 874 386 q 882 386 874 386 q 900 376 889 386 q 911 350 911 365 q 901 324 911 335 q 858 283 885 307 q 762 203 832 258 q 622 106 692 149 q 458 31 553 64 q 281 -3 364 -3 q 51 72 153 -4 q -4 146 13 100 q -19 231 -21 192 q -6 314 -18 269 q 15 376 7 358 q 28 406 22 394 q 50 422 36 418 q 77 419 64 426 q 95 399 90 413 q 93 372 100 385 q 84 352 90 365 q 67 306 78 339 q 54 243 57 272 q 60 181 51 214 q 94 131 69 149 q 231 76 156 86 q 374 82 306 65 q 516 134 443 99 q 644 207 589 169 q 749 286 699 244 q 821 348 800 328 q 849 375 842 368 q 874 386 860 386 m 13 485 q -22 513 -15 485 q -4 554 -29 540 q 65 606 35 574 q 91 617 76 617 q 117 606 106 617 q 128 581 128 596 q 118 556 129 567 q 31 490 79 515 q 13 485 22 485 z "},"j":{"ha":682,"x_min":-342,"x_max":746,"o":"m -26 472 q -62 500 -56 472 q -44 542 -69 528 q 25 593 -4 561 q 51 604 36 604 q 77 594 67 604 q 88 568 88 583 q 78 542 89 553 q -10 476 40 501 q -26 472 -18 472 m 707 384 q 715 384 707 384 q 733 374 722 385 q 745 349 744 364 q 735 322 746 333 q 492 215 633 224 q 236 290 350 206 q 221 289 228 296 q 39 88 124 194 q 31 71 33 81 q -90 -378 -21 -175 q -221 -617 -158 -581 q -256 -626 -237 -626 q -301 -606 -282 -625 q -342 -490 -347 -557 q -253 -220 -339 -382 q -39 107 -168 -58 q -25 136 -29 119 q 8 390 8 261 q 13 417 6 404 q 35 433 21 429 q 63 429 50 438 q 79 407 76 421 q 68 272 82 339 q 76 258 67 263 q 92 261 85 254 q 192 363 146 319 q 223 376 206 375 q 256 367 240 376 q 392 298 324 315 q 508 288 461 281 q 599 316 554 294 q 658 351 643 338 q 682 372 674 364 q 707 384 692 383 m -253 -551 q -171 -388 -221 -528 q -72 -64 -121 -249 q -213 -306 -160 -192 q -268 -493 -267 -419 q -253 -551 -272 -525 z "},"k":{"ha":1094,"x_min":-54,"x_max":1158,"o":"m 1122 341 q 1130 341 1122 341 q 1148 330 1138 340 q 1158 304 1158 319 q 1146 278 1157 289 q 920 132 1056 192 q 654 50 785 72 q 408 30 524 28 q 228 60 293 32 q 144 154 146 92 q 133 151 143 158 q 13 7 65 86 q -31 -6 -4 -15 q -54 32 -57 4 q -27 292 -40 175 q 7 544 -14 410 q 53 782 28 679 q 112 975 79 885 q 188 1119 144 1065 q 282 1185 231 1172 q 340 1188 310 1196 q 389 1157 369 1181 q 406 1098 404 1135 q 397 1016 407 1061 q 366 914 386 971 q 321 801 346 857 q 265 683 296 746 q 205 569 233 621 q 145 462 176 517 q 92 372 114 407 q 50 303 71 336 q 49 301 50 303 q 47 300 49 300 q 36 206 42 254 q 47 185 35 192 q 69 190 60 179 q 293 353 182 303 q 446 389 404 403 q 474 349 474 378 q 406 299 472 314 q 292 235 336 265 q 233 186 247 204 q 218 157 218 168 q 256 126 218 142 q 419 102 314 103 q 645 122 525 101 q 890 197 765 142 q 1096 331 1014 251 q 1122 341 1107 342 m 299 1114 q 88 576 174 1083 q 99 558 85 563 q 119 565 113 553 q 297 933 240 782 q 331 1114 353 1083 q 319 1117 328 1117 q 299 1114 308 1117 z "},"l":{"ha":915,"x_min":-6,"x_max":967,"o":"m 930 367 q 937 367 930 367 q 956 356 944 367 q 967 331 967 346 q 956 304 967 315 q 913 265 938 288 q 819 189 889 243 q 681 94 749 135 q 523 22 614 54 q 353 -11 432 -11 q 253 3 301 -11 q 102 112 163 29 q 14 325 42 194 q 11 339 11 332 q -6 476 -1 407 q 11 793 -14 626 q 90 1089 36 960 q 213 1247 144 1218 q 274 1251 242 1260 q 325 1218 306 1243 q 358 1126 354 1188 q 342 986 361 1065 q 298 825 324 907 q 233 653 272 743 q 166 500 194 563 q 108 378 138 438 q 100 285 86 332 q 274 72 151 110 q 363 62 313 56 q 458 77 414 68 q 552 111 501 86 q 642 158 603 136 q 726 210 682 179 q 797 264 769 242 q 853 310 825 286 q 890 343 881 335 q 904 357 899 351 q 930 367 915 367 m 72 497 q 82 484 74 488 q 96 489 90 481 q 185 701 133 549 q 267 997 238 853 q 272 1168 297 1142 q 249 1182 260 1182 q 240 1181 244 1182 q 157 1047 206 1165 q 80 767 108 928 q 72 497 51 606 z "},"m":{"ha":1463,"x_min":-75,"x_max":1539,"o":"m 1497 361 q 1505 362 1497 361 q 1524 353 1513 363 q 1538 328 1536 343 q 1531 301 1539 314 q 1499 265 1519 288 q 1426 196 1479 243 q 1318 111 1374 149 q 1184 44 1263 74 q 1032 15 1106 15 q 839 68 928 15 q 728 203 761 118 q 694 259 707 247 q 658 267 682 271 q 563 198 631 263 q 456 65 496 133 q 413 49 440 40 q 388 86 386 57 q 365 226 392 169 q 306 288 338 283 q 265 283 288 290 q 204 253 242 276 q 111 176 167 231 q -10 38 56 121 q -54 28 -28 15 q -74 68 -81 40 l -7 361 q 9 385 -4 376 q 37 390 22 393 q 60 373 51 386 q 64 346 68 360 q 38 226 38 232 q 42 217 36 219 q 54 221 49 214 q 158 309 111 276 q 240 350 206 342 q 294 358 275 358 q 339 353 314 358 q 412 296 382 333 q 449 211 442 258 q 458 202 450 204 q 469 206 465 200 q 565 296 517 258 q 647 339 614 333 q 702 337 678 343 q 744 311 726 331 q 772 277 763 292 q 793 236 781 263 q 875 132 818 171 q 998 92 933 97 q 1117 101 1063 86 q 1229 147 1172 115 q 1326 208 1286 178 q 1403 275 1365 239 q 1453 325 1440 311 q 1474 347 1467 339 q 1497 361 1482 360 z "},"n":{"ha":1157,"x_min":-50,"x_max":1226,"o":"m 1188 356 q 1195 356 1188 356 q 1214 346 1203 356 q 1226 321 1225 336 q 1215 294 1226 306 q 1192 269 1207 285 q 1135 219 1176 254 q 1050 154 1093 185 q 945 92 1007 124 q 824 44 883 61 q 694 28 764 26 q 561 54 624 29 q 393 214 453 108 q 387 225 393 215 q 376 241 381 235 q 363 256 371 247 q 347 268 356 264 q 328 271 338 272 q 14 31 217 268 q -30 22 -4 10 q -49 63 -56 35 l 21 368 q 37 390 24 382 q 65 395 50 399 q 87 378 79 392 q 92 351 94 365 l 60 214 q 65 203 58 207 q 78 206 72 200 q 338 344 232 351 q 413 308 382 342 q 454 254 436 283 q 588 122 501 168 q 678 101 631 104 q 767 106 725 99 q 854 131 810 114 q 935 169 899 149 q 1009 215 972 190 q 1071 261 1046 240 q 1119 303 1096 282 q 1151 332 1143 324 q 1163 344 1158 340 q 1188 356 1172 356 z "},"o":{"ha":960,"x_min":-39,"x_max":1025,"o":"m 988 406 q 995 406 988 406 q 1014 394 1003 406 q 1025 368 1025 383 q 1014 343 1025 353 q 826 203 929 258 q 624 128 722 149 q 437 108 525 107 q 279 129 349 108 q 264 122 269 132 q 209 56 246 81 q 126 29 172 31 q 42 51 81 29 q -33 129 -11 76 q -37 238 -56 182 q 39 369 -19 310 q 149 429 97 429 l 150 429 q 176 418 165 429 q 186 392 186 407 q 175 367 186 378 q 149 357 164 357 q 86 313 126 357 q 32 219 46 269 q 33 159 21 189 q 75 117 46 129 q 131 101 100 97 q 181 128 161 104 q 192 171 208 158 q 143 242 153 196 q 158 326 133 288 q 267 386 213 418 q 301 325 293 371 q 300 229 310 279 q 306 205 297 217 q 326 190 314 193 q 669 215 501 161 q 963 394 838 269 q 988 406 972 406 m 228 238 q 231 306 233 271 q 221 290 225 296 q 214 263 213 278 q 228 238 215 247 z "},"p":{"ha":1094,"x_min":-256,"x_max":1157,"o":"m 1120 374 q 1127 374 1120 374 q 1145 363 1135 374 q 1156 337 1156 351 q 1144 311 1156 322 q 1032 227 1094 265 q 911 164 969 189 q 776 119 853 139 q 644 88 699 99 q 509 69 589 78 q 388 58 429 61 q 276 51 347 56 q 185 46 211 47 q 157 43 171 43 q 131 53 142 43 q 119 78 121 63 q 128 103 118 92 q 153 115 138 114 q 176 118 164 117 q 265 158 226 125 q 318 240 304 192 q 256 328 328 299 q 181 296 228 339 q 22 63 82 192 q 21 56 21 60 q -193 -644 -94 -608 q -211 -647 -201 -647 q -250 -632 -233 -647 q -256 -478 -282 -599 q -173 -208 -229 -357 q -51 76 -117 -58 q 3 413 -22 240 q 24 443 4 435 q 61 438 44 451 q 75 403 78 424 q 57 283 67 346 q 60 275 56 276 q 69 279 65 274 q 282 396 185 435 q 368 331 338 379 q 389 228 399 283 q 354 147 381 183 q 353 135 350 142 q 361 129 356 129 q 548 148 464 136 q 737 184 632 160 q 934 254 842 208 q 1094 364 1026 300 q 1120 374 1106 375 m -192 -528 q -124 -285 -149 -408 q -192 -528 -167 -404 z "},"q":{"ha":869,"x_min":-114,"x_max":933,"o":"m 894 375 q 902 375 894 375 q 921 365 910 375 q 932 340 932 354 q 922 314 932 325 q 897 291 914 306 q 832 249 881 276 q 732 207 783 221 q 606 201 681 193 q 460 250 532 208 q 414 259 439 263 q 372 238 389 256 q 246 83 301 165 q 239 69 242 76 q 151 -207 211 -47 q -19 -625 90 -367 q -53 -647 -28 -647 q -64 -646 -58 -647 q -85 -628 -78 -640 q -87 -601 -92 -615 q 32 -185 -24 -343 q 168 100 88 -26 q 175 115 172 107 q 190 225 186 169 q 185 233 190 233 q 175 226 179 233 q 4 44 88 61 q -96 82 -57 33 q -114 164 -126 118 q -6 354 -97 244 q 171 504 85 464 q 199 506 185 511 q 219 488 213 501 q 220 460 225 474 q 201 439 215 446 q -37 164 38 340 q -42 131 -46 147 q -11 117 -26 113 q 82 211 29 124 q 169 394 135 299 q 204 418 178 418 q 238 394 228 418 q 258 325 251 361 q 287 290 261 299 q 332 300 313 282 q 361 328 346 314 q 410 349 382 347 q 463 335 439 351 q 672 272 556 264 q 869 364 788 281 q 894 375 879 375 z "},"r":{"ha":1139,"x_min":-28,"x_max":1208,"o":"m 1172 376 q 1180 376 1172 376 q 1198 365 1188 376 q 1208 340 1208 354 q 1197 314 1208 325 q 865 113 1063 183 q 504 43 668 43 q 351 72 425 39 q 300 113 319 90 q 275 160 281 135 q 269 207 269 186 q 278 255 268 228 q 294 297 288 282 q 311 333 300 311 q 304 343 315 342 q 289 338 299 343 q 125 300 213 296 q 49 315 86 299 q 21 318 35 311 q 1 354 -1 329 q -28 411 -19 379 q -25 524 -44 468 q 43 615 -6 579 q 135 618 101 650 q 104 403 181 575 q 108 384 101 396 q 125 372 115 372 q 276 413 206 372 q 310 430 297 425 q 343 434 322 435 q 382 419 364 433 q 401 383 400 406 q 397 345 403 361 q 376 301 390 329 q 342 199 342 238 q 389 135 343 161 q 479 115 417 118 q 626 126 542 113 q 801 168 711 140 q 985 248 892 196 q 1146 367 1078 300 q 1172 376 1157 376 m 40 442 q 79 551 65 494 q 40 442 28 507 z "},"s":{"ha":897,"x_min":-22,"x_max":965,"o":"m 928 396 q 935 396 928 396 q 953 385 943 396 q 964 360 964 375 q 954 333 964 344 q 640 124 833 213 q 279 35 447 35 q 210 39 243 35 q 82 81 140 44 q -11 178 24 118 q -15 204 -18 190 q 1 226 -11 218 q 28 231 14 235 q 51 215 43 228 q 172 138 97 154 q 313 160 246 122 q 348 209 342 176 q 331 267 354 242 q 278 310 307 292 q 181 399 219 344 q 164 410 175 408 q 146 404 153 411 l 40 304 q 4 296 25 290 q -22 322 -17 301 q -10 358 -26 343 l 203 558 q 285 635 239 601 q 310 642 296 643 q 335 629 325 640 q 343 603 344 618 q 332 579 342 589 l 256 508 q 236 460 238 488 q 258 417 236 438 q 319 369 279 397 q 393 306 363 344 q 420 231 417 272 q 404 154 424 190 q 406 133 399 143 q 426 126 414 124 q 903 385 699 192 q 928 396 913 396 z "},"t":{"ha":888,"x_min":-436,"x_max":965,"o":"m 928 389 q 935 389 928 389 q 954 378 943 389 q 965 353 965 368 q 954 326 965 338 q 913 285 939 310 q 819 207 888 261 q 683 111 750 153 q 526 35 615 69 q 358 1 436 1 q 246 22 301 1 q 61 232 121 69 q 17 643 1 394 q 7 661 15 654 q -12 667 -1 668 q -132 658 -71 663 q -237 649 -193 653 q -319 644 -282 646 q -375 640 -356 642 q -396 639 -394 639 l -399 639 q -425 648 -414 638 q -436 674 -436 658 q -426 700 -436 689 q -401 711 -417 711 q -379 713 -400 711 q -320 717 -358 714 q -235 723 -282 719 q -125 731 -189 726 q 0 740 -61 736 q 31 779 25 743 q 63 947 43 865 q 110 1104 83 1029 q 170 1228 136 1179 q 240 1283 204 1276 q 328 1228 296 1293 q 324 1063 349 1186 q 243 785 299 940 q 241 767 239 774 q 246 759 243 761 q 253 757 249 757 q 711 776 571 776 q 737 765 726 776 q 747 740 747 754 q 737 714 747 725 q 711 703 726 703 q 228 682 494 703 q 210 679 215 682 q 201 667 206 676 q 97 390 167 565 q 272 90 132 144 q 360 75 313 75 q 452 88 407 75 q 547 122 497 100 q 638 169 596 144 q 722 225 679 194 q 794 280 764 256 q 851 329 824 304 q 888 364 878 354 q 903 378 899 374 q 928 389 913 389 m 104 781 q 114 749 99 749 q 136 750 125 749 q 161 774 157 751 q 263 1194 288 1143 q 251 1205 260 1203 q 238 1201 243 1207 q 165 1048 206 1167 q 104 781 125 929 m 86 564 q 117 615 99 564 q 128 676 136 667 q 92 674 108 686 q 81 640 85 667 q 79 588 78 613 q 86 564 81 564 z "},"u":{"ha":1149,"x_min":-60,"x_max":1217,"o":"m 1179 401 q 1187 401 1179 401 q 1206 391 1194 401 q 1217 365 1217 381 q 1207 339 1217 350 q 1026 184 1132 261 q 785 49 919 107 q 542 -8 650 -8 l 539 -8 q 336 75 418 -12 q 294 165 301 114 q 273 190 292 185 q 240 182 254 196 q -19 67 75 10 q -59 130 -53 86 q -47 228 -65 174 q -10 322 -29 282 q 31 403 8 363 q 53 419 39 415 q 79 415 67 422 q 96 394 92 408 q 94 367 100 381 q 40 254 61 310 q 15 169 18 199 q 18 129 11 139 q 148 196 53 108 q 326 406 243 283 q 348 421 335 418 q 374 417 361 424 q 391 399 386 411 q 392 374 396 386 q 372 299 381 342 q 365 203 363 257 q 389 124 367 149 q 539 64 451 61 l 542 64 q 763 119 639 64 q 987 247 888 175 q 1153 389 1086 318 q 1179 401 1164 400 z "},"v":{"ha":1167,"x_min":6,"x_max":1242,"o":"m 1204 364 q 1212 364 1204 364 q 1230 353 1219 364 q 1240 326 1240 342 q 1231 300 1240 311 q 957 120 1128 197 q 629 47 786 43 q 400 125 500 44 q 378 134 392 135 q 357 124 365 133 q 253 26 313 67 q 169 0 215 1 q 104 19 135 0 q 100 24 103 21 q 47 101 68 53 q 17 192 25 149 q 7 283 10 235 q 6 350 4 331 q 8 382 7 369 q 22 406 10 397 q 48 414 33 415 q 72 401 63 413 q 81 375 82 389 q 87 215 74 306 q 146 79 100 125 q 249 114 186 58 q 328 208 294 156 q 328 222 331 215 q 297 331 301 276 q 317 422 293 385 q 365 456 335 449 q 424 447 396 463 q 455 422 443 439 q 467 383 467 404 q 419 222 464 297 q 419 208 418 215 q 426 201 424 206 q 631 121 511 115 q 926 188 768 118 q 1178 353 1085 258 q 1204 364 1189 364 m 379 311 q 393 381 394 344 q 385 386 390 386 q 376 382 379 386 q 374 311 363 347 q 377 310 375 310 q 379 311 379 310 z "},"w":{"ha":1319,"x_min":-28,"x_max":1381,"o":"m 1346 380 q 1353 380 1346 380 q 1371 368 1361 379 q 1380 342 1381 357 q 1368 317 1379 326 q 1022 142 1217 188 q 633 142 828 96 q 550 169 592 153 q 517 163 529 181 q 499 141 508 154 q 488 124 490 128 q 279 33 369 -15 q 256 53 265 40 q 216 69 239 68 q 176 54 193 69 q 133 28 157 38 q 90 18 113 18 q 43 29 65 18 q -17 99 -1 50 q -27 156 -26 124 q -21 222 -28 189 q -6 283 -14 254 q 13 341 1 313 q 29 382 24 369 q 40 404 35 394 q 61 423 47 418 q 89 422 75 428 q 108 401 103 415 q 106 372 113 386 q 58 242 79 318 q 51 122 36 165 q 75 94 57 103 q 106 94 90 88 q 185 179 143 111 q 251 314 226 247 q 270 334 257 328 q 298 335 283 340 q 319 317 313 331 q 319 289 325 303 q 301 213 308 253 q 297 140 294 174 q 314 99 299 106 q 367 111 332 88 q 438 179 408 140 q 442 247 465 213 q 424 292 428 267 q 540 431 415 369 q 576 438 557 442 q 607 421 596 435 q 596 299 633 386 q 597 249 585 274 q 635 218 608 225 q 651 214 643 215 q 1003 211 826 169 q 1319 369 1181 253 q 1346 380 1331 381 m 507 282 q 535 344 522 313 q 497 300 494 318 q 507 282 499 289 z "},"x":{"ha":1265,"x_min":-68,"x_max":1335,"o":"m 1297 393 q 1305 393 1297 393 q 1323 383 1313 393 q 1333 357 1333 372 q 1324 331 1333 342 q 1006 107 1179 186 q 664 28 833 28 q 463 60 560 28 q 231 192 336 108 q 199 203 217 203 q 167 192 181 203 q -7 43 69 114 q -33 33 -18 32 q -58 44 -49 33 q -68 71 -68 56 q -57 96 -68 86 q 93 226 10 158 q 113 265 113 242 q 96 306 114 289 q -14 414 32 365 q -23 450 -29 429 q 5 475 -17 471 q 40 463 26 479 q 168 339 89 408 q 201 325 182 326 q 235 335 219 324 q 357 422 308 389 q 385 427 369 431 q 408 411 400 424 q 413 384 417 399 q 397 361 410 369 q 317 306 376 347 q 294 262 294 289 q 317 219 294 235 q 486 128 394 163 q 882 136 668 67 q 1271 382 1096 206 q 1297 393 1282 393 z "},"y":{"ha":1032,"x_min":10,"x_max":1111,"o":"m 1074 393 q 1081 393 1074 393 q 1099 383 1089 393 q 1110 357 1110 372 q 1100 332 1110 342 q 881 227 1007 244 q 643 268 756 210 q 594 277 619 281 q 549 254 568 274 q 418 106 483 188 q 410 89 411 99 q 297 -352 372 -136 q 154 -611 221 -568 q 113 -625 135 -625 q 64 -604 83 -625 q 24 -489 18 -556 q 115 -212 26 -378 q 338 122 204 -46 q 344 140 343 131 q 354 221 353 181 q 263 106 321 154 q 131 38 204 58 q 66 37 99 28 q 11 71 33 46 q 26 390 -67 158 q 47 410 32 404 q 75 411 61 417 q 94 392 89 406 q 94 364 100 378 q 54 225 63 283 q 51 148 46 167 q 65 118 57 129 q 113 108 86 99 q 210 159 167 122 q 277 233 254 196 q 318 315 300 269 q 340 377 336 360 q 346 406 344 394 q 378 436 351 433 q 417 413 406 439 q 431 328 431 371 q 455 294 432 303 q 496 303 478 285 q 567 372 532 340 q 613 374 589 392 q 752 306 682 324 q 869 296 822 289 q 962 325 917 303 q 1023 360 1007 347 q 1047 382 1039 374 q 1074 393 1058 393 m 306 -64 q 303 -54 308 -56 q 294 -60 299 -53 q 153 -303 207 -189 q 97 -490 99 -418 q 114 -551 96 -549 q 135 -535 124 -553 q 174 -464 147 -517 q 306 -64 261 -271 z "},"z":{"ha":1076,"x_min":-26,"x_max":1150,"o":"m 1115 379 q 1123 378 1115 379 q 1140 367 1131 378 q 1149 340 1150 356 q 1136 315 1147 325 q 1101 288 1125 306 q 1011 234 1076 269 q 881 179 946 199 q 729 165 815 160 q 569 213 643 169 q 522 208 544 229 q 443 126 483 169 q 439 92 432 111 q 460 -36 463 33 q 438 -174 457 -106 q 385 -310 418 -242 q 315 -432 351 -378 q 242 -529 279 -486 q 65 -644 140 -644 q 44 -642 56 -644 q 0 -617 19 -636 q -25 -572 -19 -599 q 56 -292 -49 -481 q 317 88 160 -104 q 325 116 326 100 q 311 142 324 132 q 165 192 244 186 q 142 203 151 193 q 133 226 133 213 q 140 250 132 239 q 160 264 147 261 q 319 317 247 285 q 400 368 392 349 q 372 385 388 378 q 212 394 304 413 q 56 326 119 375 q 29 319 44 317 q 5 333 14 321 q -2 360 -4 346 q 11 385 0 375 q 201 466 90 444 q 404 450 313 488 q 472 361 478 414 q 367 257 467 307 q 347 228 349 249 q 361 194 344 207 l 363 194 q 388 186 374 185 q 413 199 403 188 q 492 281 454 244 q 539 299 513 297 q 589 286 565 301 q 726 238 651 243 q 859 249 801 232 q 976 297 917 265 q 1056 345 1035 329 q 1089 371 1078 361 q 1115 379 1100 381 m 188 -481 q 324 -270 268 -389 q 386 -50 381 -151 q 362 -13 388 -22 q 318 -25 336 -4 q 111 -344 192 -192 q 46 -554 31 -497 q 63 -571 47 -569 q 110 -553 75 -575 q 188 -481 144 -531 z "},"":{"ha":674,"x_min":0,"x_max":0,"o":""}}}
